<?xml version="1.0" encoding="utf-8"?>
<!-- Generator: Adobe Illustrator 24.1.0, SVG Export Plug-In . SVG Version: 6.00 Build 0)  -->
<svg version="1.1" id="レイヤー_1" xmlns="http://www.w3.org/2000/svg" xmlns:xlink="http://www.w3.org/1999/xlink" x="0px"
	 y="0px" viewBox="0 0 122 122" style="enable-background:new 0 0 122 122;" xml:space="preserve">
<style type="text/css">
	.st0{fill:#FFFFFF;}
</style>
<g>
	<path class="st0" d="M59.3,122c-0.5,0-1-0.5-1-1l0,0c0-0.6,0.5-1,1-1l0,0c0.6,0,1,0.5,1,1l0,0C60.3,121.5,59.8,122,59.3,122
		L59.3,122C59.3,122,59.3,122,59.3,122z M62.3,121c0-0.5,0.4-1,1-1l0,0c0.6,0,1,0.4,1,1l0,0c0,0.5-0.4,1-1,1l0,0c0,0,0,0,0,0l0,0
		C62.7,121.9,62.3,121.5,62.3,121z M55.2,121.7c-0.5-0.1-1-0.5-0.9-1.1l0,0c0-0.6,0.5-1,1.1-0.9v0c0.5,0,1,0.5,0.9,1.1l0,0
		C56.2,121.3,55.8,121.7,55.2,121.7L55.2,121.7C55.3,121.7,55.2,121.7,55.2,121.7z M66.3,120.8c-0.1-0.5,0.3-1,0.9-1.1l0,0
		c0.5-0.1,1,0.3,1.1,0.9l0,0c0.1,0.5-0.3,1-0.9,1.1l0,0c0,0-0.1,0-0.1,0l0,0C66.8,121.7,66.3,121.3,66.3,120.8z M51.2,121.2
		c-0.6-0.1-0.9-0.6-0.8-1.1l0,0c0.1-0.5,0.6-0.9,1.1-0.8l0,0c0.5,0.1,0.9,0.6,0.8,1.1l0,0c-0.1,0.5-0.5,0.8-1,0.8l0,0
		C51.3,121.2,51.2,121.2,51.2,121.2z M70.2,120.3c-0.1-0.5,0.3-1.1,0.8-1.2l0,0c0.5-0.1,1.1,0.3,1.2,0.8l0,0
		c0.1,0.5-0.3,1.1-0.8,1.2l0,0c-0.1,0-0.1,0-0.2,0l0,0C70.8,121.1,70.3,120.8,70.2,120.3z M47.2,120.4c-0.5-0.1-0.9-0.7-0.8-1.2l0,0
		c0.1-0.5,0.7-0.9,1.2-0.8l0,0c0.5,0.1,0.9,0.7,0.8,1.2l0,0c-0.1,0.5-0.5,0.8-1,0.8l0,0C47.3,120.4,47.3,120.4,47.2,120.4z
		 M74.2,119.5c-0.1-0.5,0.2-1.1,0.7-1.2l0,0c0.5-0.1,1.1,0.2,1.2,0.7l0,0c0.1,0.5-0.2,1.1-0.7,1.2l0,0c-0.1,0-0.2,0-0.2,0l0,0
		C74.7,120.3,74.3,120,74.2,119.5z M43.3,119.4L43.3,119.4L43.3,119.4c-0.5-0.2-0.8-0.7-0.7-1.2l0,0c0.2-0.5,0.7-0.8,1.2-0.7l0,0
		c0.5,0.2,0.8,0.7,0.7,1.2l0,0c-0.1,0.4-0.5,0.7-1,0.7l0,0C43.5,119.4,43.4,119.4,43.3,119.4z M78,118.5c-0.2-0.5,0.1-1.1,0.6-1.2
		l0,0c0.5-0.2,1.1,0.1,1.3,0.7l0,0c0.2,0.5-0.1,1.1-0.7,1.2l0,0c-0.1,0-0.2,0-0.3,0l0,0C78.6,119.2,78.2,119,78,118.5z M39.4,118.1
		c-0.5-0.2-0.8-0.8-0.6-1.3l0,0c0.2-0.5,0.8-0.8,1.3-0.6l0,0c0.5,0.2,0.8,0.8,0.6,1.3l0,0c-0.2,0.4-0.5,0.6-0.9,0.6l0,0
		C39.6,118.1,39.5,118.1,39.4,118.1z M81.8,117.3c-0.2-0.5,0.1-1.1,0.6-1.3l0,0c0.5-0.2,1.1,0.1,1.3,0.6l0,0
		c0.2,0.5-0.1,1.1-0.6,1.3l0,0c-0.1,0-0.2,0.1-0.4,0.1l0,0C82.4,117.9,82,117.7,81.8,117.3z M35.6,116.5c-0.5-0.2-0.7-0.8-0.5-1.3
		l0,0c0.2-0.5,0.8-0.7,1.3-0.5v0c0.5,0.2,0.7,0.8,0.5,1.3l0,0c-0.2,0.4-0.5,0.6-0.9,0.6l0,0C35.9,116.6,35.8,116.6,35.6,116.5z
		 M85.5,115.8c-0.2-0.5,0-1.1,0.5-1.3l0,0c0.5-0.2,1.1,0,1.3,0.5l0,0c0.2,0.5,0,1.1-0.5,1.3l0,0l0,0l0,0c-0.1,0.1-0.3,0.1-0.4,0.1
		l0,0C86.1,116.3,85.7,116.1,85.5,115.8z M32,114.7c-0.5-0.3-0.7-0.9-0.4-1.4l0,0c0.3-0.5,0.9-0.7,1.4-0.4l0,0
		c0.5,0.3,0.7,0.9,0.4,1.4l0,0c-0.2,0.3-0.5,0.5-0.9,0.5l0,0C32.3,114.8,32.2,114.7,32,114.7z M89.1,114c-0.3-0.5-0.1-1.1,0.4-1.4
		l0,0c0.5-0.3,1.1-0.1,1.4,0.4l0,0c0.3,0.5,0.1,1.1-0.4,1.4l0,0c-0.2,0.1-0.3,0.1-0.5,0.1l0,0C89.6,114.5,89.3,114.3,89.1,114z
		 M28.5,112.6c-0.5-0.3-0.6-0.9-0.3-1.4l0,0c0.3-0.5,0.9-0.6,1.4-0.3l0,0c0.5,0.3,0.6,0.9,0.3,1.4l0,0c-0.2,0.3-0.5,0.5-0.9,0.5l0,0
		C28.8,112.8,28.7,112.7,28.5,112.6z M92.6,112c-0.3-0.5-0.2-1.1,0.3-1.4l0,0c0.5-0.3,1.1-0.2,1.4,0.3l0,0c0.3,0.5,0.2,1.1-0.3,1.4
		l0,0c0,0,0,0,0,0l0,0c-0.2,0.1-0.4,0.2-0.5,0.2l0,0C93.1,112.5,92.8,112.3,92.6,112z M25.1,110.3L25.1,110.3L25.1,110.3
		c-0.4-0.3-0.5-0.9-0.2-1.4l0,0c0.3-0.4,0.9-0.5,1.4-0.2l0,0c0.4,0.3,0.5,1,0.2,1.4l0,0c-0.2,0.3-0.5,0.4-0.8,0.4l0,0
		C25.5,110.5,25.3,110.5,25.1,110.3z M95.9,109.8c-0.3-0.4-0.2-1.1,0.2-1.4l0,0c0.5-0.3,1.1-0.2,1.4,0.2l0,0
		c0.3,0.4,0.2,1.1-0.2,1.4l0,0c-0.2,0.1-0.4,0.2-0.6,0.2l0,0C96.4,110.2,96.1,110.1,95.9,109.8z M21.9,107.8c-0.4-0.4-0.5-1-0.1-1.4
		l0,0c0.4-0.4,1-0.5,1.4-0.1l0,0c0.4,0.4,0.5,1,0.1,1.4l0,0c-0.2,0.2-0.5,0.4-0.8,0.4l0,0C22.3,108.1,22.1,108,21.9,107.8z
		 M99.1,107.4c-0.4-0.4-0.3-1,0.1-1.4l0,0c0.4-0.4,1-0.3,1.4,0.1l0,0c0.4,0.4,0.3,1-0.1,1.4l0,0c-0.2,0.2-0.4,0.2-0.6,0.2l0,0
		C99.6,107.7,99.3,107.6,99.1,107.4z M18.9,105.1c-0.4-0.4-0.4-1,0-1.4l0,0c0.4-0.4,1-0.4,1.4,0l0,0c0.4,0.4,0.4,1,0,1.4l0,0
		c-0.2,0.2-0.5,0.3-0.7,0.3l0,0C19.3,105.4,19.1,105.3,18.9,105.1z M102.1,104.7c-0.4-0.4-0.4-1,0-1.4l0,0c0.4-0.4,1-0.4,1.4,0l0,0
		c0.4,0.4,0.4,1,0,1.4l0,0c-0.2,0.2-0.4,0.3-0.7,0.3l0,0C102.5,105,102.3,104.9,102.1,104.7z M16,102.2c-0.4-0.4-0.3-1,0.1-1.4l0,0
		c0.4-0.4,1-0.4,1.4,0.1l0,0c0.4,0.4,0.4,1-0.1,1.4l0,0c-0.2,0.2-0.4,0.3-0.7,0.3l0,0C16.5,102.5,16.2,102.4,16,102.2z M104.9,101.9
		c-0.4-0.4-0.4-1-0.1-1.4l0,0c0.4-0.4,1-0.4,1.4-0.1l0,0c0.4,0.4,0.4,1,0.1,1.4l0,0c0,0,0,0,0,0l0,0c-0.2,0.2-0.5,0.3-0.7,0.3l0,0
		C105.3,102.2,105.1,102.1,104.9,101.9z M13.4,99.1c-0.3-0.4-0.3-1.1,0.2-1.4l0,0c0.4-0.3,1.1-0.3,1.4,0.2l0,0
		c0.4,0.4,0.3,1.1-0.1,1.4l0,0c-0.2,0.2-0.4,0.2-0.6,0.2l0,0C13.9,99.5,13.6,99.4,13.4,99.1z M107.5,98.9c-0.4-0.3-0.5-1-0.2-1.4
		l0,0c0.4-0.4,1-0.5,1.4-0.2l0,0c0.4,0.3,0.5,1,0.2,1.4l0,0l0,0l0,0c-0.2,0.2-0.5,0.4-0.8,0.4l0,0C107.9,99.1,107.7,99,107.5,98.9z
		 M11,95.9L11,95.9L11,95.9c-0.3-0.5-0.2-1.1,0.2-1.4l0,0c0.5-0.3,1.1-0.2,1.4,0.2l0,0c0.3,0.5,0.2,1.1-0.2,1.4l0,0
		c-0.2,0.1-0.4,0.2-0.6,0.2l0,0C11.5,96.3,11.2,96.2,11,95.9z M109.9,95.7c-0.4-0.3-0.6-0.9-0.3-1.4l0,0c0.3-0.5,0.9-0.6,1.4-0.3
		l0,0c0.5,0.3,0.6,0.9,0.3,1.4l0,0c-0.2,0.3-0.5,0.4-0.8,0.4l0,0C110.3,95.9,110.1,95.8,109.9,95.7z M8.7,92.5L8.7,92.5L8.7,92.5
		c-0.3-0.5-0.1-1.1,0.3-1.4l0,0c0.5-0.3,1.1-0.1,1.4,0.3l0,0c0.3,0.5,0.1,1.1-0.3,1.4l0,0C10,92.9,9.8,93,9.6,93l0,0
		C9.3,93,8.9,92.8,8.7,92.5z M112.2,92.4c-0.5-0.3-0.6-0.9-0.4-1.4l0,0c0.3-0.5,0.9-0.6,1.4-0.4l0,0c0.5,0.3,0.6,0.9,0.3,1.4l0,0
		c-0.2,0.3-0.5,0.5-0.9,0.5l0,0C112.5,92.5,112.3,92.4,112.2,92.4z M6.8,88.9c-0.3-0.5-0.1-1.1,0.4-1.3l0,0c0.5-0.3,1.1-0.1,1.3,0.4
		l0,0c0.2,0.5,0.1,1.1-0.4,1.3l0,0c-0.2,0.1-0.3,0.1-0.5,0.1l0,0C7.3,89.5,6.9,89.3,6.8,88.9z M114.1,88.9c-0.5-0.2-0.7-0.9-0.4-1.4
		l0,0c0.2-0.5,0.9-0.7,1.3-0.4l0,0c0.5,0.2,0.7,0.8,0.4,1.3l0,0c-0.2,0.3-0.5,0.5-0.9,0.5l0,0C114.4,89,114.3,88.9,114.1,88.9z
		 M5,85.3c-0.2-0.5,0-1.1,0.5-1.3l0,0c0.5-0.2,1.1,0,1.3,0.5l0,0c0.2,0.5,0,1.1-0.5,1.3l0,0c-0.1,0.1-0.3,0.1-0.4,0.1l0,0
		C5.6,85.9,5.2,85.6,5,85.3z M115.9,85.3c-0.5-0.2-0.8-0.8-0.5-1.3l0,0c0.2-0.5,0.8-0.7,1.3-0.5l0,0c0.5,0.2,0.8,0.8,0.5,1.3l0,0
		c-0.2,0.4-0.5,0.6-0.9,0.6l0,0C116.1,85.4,116,85.3,115.9,85.3z M3.5,81.5c-0.2-0.5,0.1-1.1,0.6-1.3l0,0c0.5-0.2,1.1,0.1,1.3,0.6
		l0,0c0.2,0.5-0.1,1.1-0.6,1.3l0,0c-0.1,0-0.2,0-0.3,0l0,0C4.1,82.2,3.7,81.9,3.5,81.5z M117.4,81.6c-0.5-0.2-0.8-0.8-0.6-1.3l0,0
		c0.2-0.5,0.7-0.8,1.3-0.6l0,0c0.5,0.2,0.8,0.8,0.6,1.3l0,0c-0.2,0.4-0.5,0.7-1,0.7l0,0C117.6,81.6,117.5,81.6,117.4,81.6z
		 M2.3,77.6c-0.1-0.5,0.2-1.1,0.7-1.2l0,0c0.5-0.2,1.1,0.2,1.2,0.7l0,0c0.2,0.5-0.1,1.1-0.7,1.2l0,0c-0.1,0-0.2,0-0.3,0l0,0
		C2.8,78.4,2.4,78.1,2.3,77.6z M118.6,77.8c-0.5-0.2-0.9-0.7-0.7-1.2l0,0c0.1-0.5,0.7-0.8,1.2-0.7l0,0c0.5,0.2,0.9,0.7,0.7,1.2l0,0
		c-0.1,0.4-0.5,0.7-1,0.7l0,0C118.8,77.8,118.7,77.8,118.6,77.8z M1.3,73.7L1.3,73.7L1.3,73.7c-0.1-0.5,0.2-1.1,0.8-1.2l0,0
		c0.5-0.1,1.1,0.2,1.2,0.8l0,0c0.1,0.5-0.2,1.1-0.8,1.2l0,0c-0.1,0-0.1,0-0.2,0l0,0C1.8,74.5,1.4,74.1,1.3,73.7z M119.6,73.9
		c-0.5-0.1-0.9-0.6-0.8-1.2l0,0c0.1-0.5,0.6-0.9,1.2-0.8l0,0c0.5,0.1,0.9,0.6,0.8,1.2l0,0c-0.1,0.5-0.5,0.8-1,0.8l0,0
		C119.7,73.9,119.7,73.9,119.6,73.9z M0.6,69.7c-0.1-0.6,0.3-1.1,0.8-1.1l0,0c0.5-0.1,1.1,0.3,1.1,0.9l0,0c0.1,0.5-0.3,1-0.9,1.1
		l0,0c0,0-0.1,0-0.1,0l0,0C1.1,70.5,0.7,70.2,0.6,69.7z M120.3,69.9c-0.5-0.1-0.9-0.6-0.9-1.1l0,0c0.1-0.5,0.6-0.9,1.1-0.9l0,0
		c0.5,0.1,0.9,0.6,0.9,1.1l0,0c-0.1,0.5-0.5,0.9-1,0.9l0,0C120.4,70,120.4,70,120.3,69.9z M0.2,65.6c0-0.6,0.4-1,0.9-1.1l0,0
		c0.5,0,1,0.4,1.1,0.9l0,0c0,0.5-0.4,1-0.9,1.1l0,0c0,0,0,0-0.1,0l0,0C0.7,66.6,0.2,66.2,0.2,65.6z M120.8,66c-0.6,0-1-0.5-0.9-1.1
		h0c0-0.6,0.5-1,1.1-0.9l0,0c0.5,0,1,0.5,0.9,1.1l0,0l0,0l0,0C121.8,65.6,121.4,66,120.8,66L120.8,66C120.8,66,120.8,66,120.8,66z
		 M0,61.6c0-0.5,0.4-1,1-1l0,0c0.5,0,1,0.4,1,1l0,0c0,0.6-0.4,1-1,1l0,0c0,0,0,0,0,0l0,0C0.5,62.6,0,62.1,0,61.6z M120,61
		c0-0.2,0.1-0.4,0.2-0.6l0,0c-0.1-0.1-0.2-0.4-0.2-0.6l0,0c0-0.5,0.4-1,1-1l0,0c0.5,0,1,0.4,1,1l0,0c0,0.2-0.1,0.4-0.2,0.6l0,0
		c0.1,0.2,0.2,0.4,0.2,0.6l0,0l0,0l0,0c0,0.6-0.4,1-1,1l0,0C120.4,62,120,61.5,120,61z M1,58.6c-0.6,0-1-0.5-0.9-1.1l0,0l0,0l0,0
		c0-0.6,0.5-1,1.1-0.9l0,0c0.5,0,1,0.5,0.9,1.1l0,0C2.1,58.2,1.6,58.6,1,58.6L1,58.6C1.1,58.6,1.1,58.6,1,58.6z M119.8,55.9
		L119.8,55.9c0-0.6,0.4-1,0.9-1.1l0,0c0.5,0,1,0.4,1.1,0.9l0,0c0,0.5-0.4,1-0.9,1.1l0,0c0,0-0.1,0-0.1,0l0,0
		C120.3,56.9,119.8,56.5,119.8,55.9z M1.3,54.6c-0.5-0.1-0.9-0.6-0.9-1.1l0,0c0.1-0.5,0.6-0.9,1.1-0.9l0,0c0.5,0.1,0.9,0.6,0.9,1.1
		l0,0c-0.1,0.5-0.5,0.9-1,0.9l0,0C1.4,54.6,1.4,54.6,1.3,54.6z M119.3,52L119.3,52c-0.1-0.5,0.3-1,0.8-1.1l0,0
		c0.5-0.1,1,0.3,1.1,0.8l0,0c0.1,0.5-0.3,1.1-0.8,1.1l0,0c-0.1,0-0.1,0-0.2,0l0,0C119.8,52.9,119.4,52.5,119.3,52z M1.9,50.6
		C1.3,50.5,1,50,1.1,49.5l0,0c0,0,0,0,0,0l0,0c0.1-0.6,0.6-0.9,1.2-0.8l0,0c0.5,0.1,0.9,0.6,0.8,1.2l0,0c-0.1,0.5-0.5,0.8-1,0.8l0,0
		C2,50.6,1.9,50.6,1.9,50.6z M118.6,48.2c-0.1-0.5,0.2-1.1,0.8-1.2l0,0c0.5-0.1,1.1,0.2,1.2,0.8l0,0c0.1,0.5-0.2,1.1-0.8,1.2l0,0
		c-0.1,0-0.1,0-0.2,0l0,0C119.1,49,118.7,48.6,118.6,48.2z M2.7,46.7C2.2,46.6,1.8,46,2,45.5l0,0c0.1-0.5,0.7-0.9,1.2-0.7l0,0
		c0.5,0.1,0.9,0.7,0.7,1.2l0,0c-0.1,0.5-0.5,0.7-1,0.7l0,0C2.9,46.7,2.8,46.7,2.7,46.7z M117.6,44.4c-0.2-0.5,0.1-1.1,0.7-1.2l0,0
		c0.5-0.2,1.1,0.1,1.2,0.7l0,0l0,0l0,0c0.1,0.5-0.2,1.1-0.7,1.2l0,0c-0.1,0-0.2,0-0.3,0l0,0C118.2,45.1,117.8,44.8,117.6,44.4z
		 M3.8,42.9c-0.5-0.2-0.8-0.7-0.6-1.3l0,0c0.2-0.5,0.8-0.8,1.3-0.6l0,0c0.5,0.2,0.8,0.8,0.6,1.3l0,0c-0.1,0.4-0.5,0.7-0.9,0.7l0,0
		C4,42.9,3.9,42.9,3.8,42.9z M116.4,40.6c-0.2-0.5,0.1-1.1,0.6-1.3l0,0c0.5-0.2,1.1,0.1,1.3,0.6l0,0c0.2,0.5-0.1,1.1-0.6,1.3l0,0
		c-0.1,0-0.2,0.1-0.3,0.1l0,0C116.9,41.3,116.5,41,116.4,40.6z M5.1,39.1c-0.5-0.2-0.8-0.8-0.5-1.3l0,0c0.2-0.5,0.8-0.8,1.3-0.5l0,0
		c0.5,0.2,0.8,0.8,0.6,1.3l0,0c-0.2,0.4-0.5,0.6-0.9,0.6l0,0C5.4,39.2,5.2,39.1,5.1,39.1z M114.9,37c-0.2-0.5,0-1.1,0.5-1.3l0,0
		c0.5-0.2,1.1,0,1.3,0.5l0,0c0.2,0.5,0,1.1-0.5,1.3l0,0c-0.1,0.1-0.3,0.1-0.4,0.1l0,0C115.4,37.6,115.1,37.4,114.9,37z M6.7,35.4
		c-0.5-0.2-0.7-0.8-0.5-1.3l0,0c0,0,0,0,0,0l0,0c0.2-0.5,0.8-0.7,1.3-0.5l0,0C8.1,33.9,8.3,34.5,8,35l0,0c-0.2,0.3-0.5,0.5-0.9,0.5
		l0,0C7,35.5,6.8,35.5,6.7,35.4z M113.2,33.5c-0.3-0.5-0.1-1.1,0.4-1.4l0,0c0.5-0.3,1.1-0.1,1.4,0.4l0,0c0.3,0.5,0.1,1.1-0.4,1.4
		l0,0c-0.2,0.1-0.3,0.1-0.5,0.1l0,0C113.7,34,113.4,33.8,113.2,33.5z M8.5,31.8c-0.5-0.3-0.6-0.9-0.4-1.4l0,0
		c0.3-0.5,0.9-0.6,1.4-0.4l0,0c0.5,0.3,0.6,0.9,0.4,1.4l0,0C9.7,31.8,9.4,32,9,32l0,0C8.9,32,8.7,31.9,8.5,31.8z M111.2,30L111.2,30
		c-0.3-0.5-0.1-1.1,0.3-1.4l0,0c0.5-0.3,1.1-0.1,1.4,0.3l0,0l0,0l0,0c0.3,0.5,0.2,1.1-0.3,1.4l0,0c-0.2,0.1-0.4,0.1-0.5,0.1l0,0
		C111.8,30.5,111.4,30.4,111.2,30z M10.6,28.4c-0.5-0.3-0.6-0.9-0.3-1.4l0,0c0.3-0.5,0.9-0.6,1.4-0.3l0,0c0.5,0.3,0.6,0.9,0.3,1.4
		l0,0c-0.2,0.3-0.5,0.4-0.8,0.4l0,0C11,28.6,10.8,28.5,10.6,28.4z M109.1,26.8L109.1,26.8c-0.3-0.4-0.2-1.1,0.2-1.4l0,0
		c0.5-0.3,1.1-0.2,1.4,0.2l0,0c0,0,0,0,0,0l0,0c0.3,0.4,0.2,1.1-0.2,1.4l0,0c-0.2,0.1-0.4,0.2-0.6,0.2l0,0
		C109.6,27.2,109.3,27,109.1,26.8z M12.9,25.1c-0.4-0.3-0.5-1-0.2-1.4l0,0c0.3-0.4,1-0.5,1.4-0.2l0,0c0.4,0.3,0.5,1,0.2,1.4l0,0
		c-0.2,0.2-0.5,0.4-0.8,0.4l0,0C13.3,25.3,13.1,25.3,12.9,25.1z M106.7,23.7L106.7,23.7c-0.3-0.4-0.3-1.1,0.1-1.4l0,0
		c0.4-0.4,1.1-0.3,1.4,0.1l0,0c0.4,0.4,0.3,1-0.1,1.4l0,0c-0.2,0.2-0.4,0.2-0.6,0.2l0,0C107.2,24,106.9,23.9,106.7,23.7z M15.4,22
		c-0.4-0.4-0.4-1-0.1-1.4l0,0c0.4-0.4,1-0.4,1.4-0.1l0,0c0.4,0.4,0.5,1,0.1,1.4l0,0c-0.2,0.2-0.5,0.3-0.7,0.3l0,0
		C15.8,22.3,15.6,22.2,15.4,22z M104.1,20.7c-0.4-0.4-0.4-1,0-1.4l0,0c0.4-0.4,1-0.4,1.4,0.1l0,0c0.4,0.4,0.4,1,0,1.4l0,0
		c-0.2,0.2-0.4,0.3-0.7,0.3l0,0C104.6,21,104.3,20.9,104.1,20.7z M18.1,19c-0.4-0.4-0.4-1,0-1.4l0,0c0.4-0.4,1-0.4,1.4,0l0,0
		c0.4,0.4,0.4,1,0,1.4l0,0c-0.2,0.2-0.5,0.3-0.7,0.3l0,0C18.5,19.4,18.3,19.3,18.1,19z M101.3,17.9c-0.4-0.4-0.4-1,0-1.4l0,0
		c0.4-0.4,1-0.4,1.4,0l0,0c0.4,0.4,0.4,1,0,1.4l0,0c-0.2,0.2-0.5,0.3-0.7,0.3l0,0C101.8,18.2,101.5,18.1,101.3,17.9z M21,16.3
		c-0.4-0.4-0.3-1.1,0.1-1.4l0,0l0,0l0,0c0.4-0.4,1.1-0.3,1.4,0.1l0,0c0.4,0.4,0.3,1.1-0.1,1.4l0,0c-0.2,0.2-0.4,0.2-0.6,0.2l0,0
		C21.4,16.6,21.2,16.5,21,16.3z M98.4,15.3c-0.4-0.4-0.5-1-0.1-1.4l0,0c0.3-0.4,1-0.5,1.4-0.1l0,0c0,0,0,0,0,0l0,0
		c0.4,0.3,0.5,1,0.1,1.4l0,0c-0.2,0.2-0.5,0.4-0.8,0.4l0,0C98.8,15.5,98.5,15.5,98.4,15.3z M24,13.7c-0.3-0.4-0.2-1.1,0.2-1.4l0,0
		c0.4-0.3,1.1-0.2,1.4,0.2l0,0c0.3,0.4,0.2,1.1-0.2,1.4l0,0c-0.2,0.1-0.4,0.2-0.6,0.2l0,0C24.5,14.1,24.2,14,24,13.7z M95.2,12.9
		c-0.5-0.3-0.5-0.9-0.2-1.4l0,0c0.3-0.5,0.9-0.6,1.4-0.2l0,0c0.5,0.3,0.5,1,0.2,1.4l0,0c-0.2,0.3-0.5,0.4-0.8,0.4l0,0
		C95.6,13.1,95.4,13.1,95.2,12.9z M27.3,11.4c-0.3-0.5-0.2-1.1,0.3-1.4l0,0l0,0l0,0c0.5-0.3,1.1-0.2,1.4,0.3l0,0
		c0.3,0.5,0.2,1.1-0.3,1.4l0,0c-0.2,0.1-0.4,0.2-0.5,0.2l0,0C27.8,11.8,27.4,11.7,27.3,11.4z M91.9,10.8c-0.5-0.3-0.6-0.9-0.3-1.4
		l0,0C91.9,8.9,92.5,8.8,93,9l0,0l0,0l0,0c0.5,0.3,0.6,0.9,0.3,1.4l0,0c-0.2,0.3-0.5,0.5-0.9,0.5l0,0C92.3,10.9,92.1,10.9,91.9,10.8
		z M30.6,9.2c-0.3-0.5-0.1-1.1,0.4-1.4l0,0c0.5-0.3,1.1-0.1,1.4,0.4l0,0c0.3,0.5,0.1,1.1-0.4,1.4l0,0c-0.2,0.1-0.3,0.1-0.5,0.1l0,0
		C31.2,9.7,30.8,9.5,30.6,9.2z M88.5,8.8c-0.5-0.3-0.7-0.9-0.4-1.3l0,0C88.4,7,89,6.8,89.5,7l0,0c0.5,0.3,0.7,0.9,0.4,1.4l0,0
		c-0.2,0.3-0.5,0.5-0.9,0.5l0,0C88.9,8.9,88.7,8.9,88.5,8.8z M34.1,7.3c-0.2-0.5,0-1.1,0.5-1.3l0,0c0.5-0.2,1.1,0,1.3,0.5l0,0
		c0.2,0.5,0,1.1-0.5,1.3l0,0c-0.1,0.1-0.3,0.1-0.4,0.1l0,0C34.7,7.9,34.3,7.7,34.1,7.3z M85,7.1L85,7.1c-0.5-0.2-0.7-0.8-0.5-1.3
		l0,0c0.2-0.5,0.8-0.7,1.3-0.5l0,0l0,0l0,0c0.5,0.2,0.7,0.8,0.5,1.3l0,0c-0.2,0.4-0.5,0.6-0.9,0.6l0,0C85.3,7.2,85.1,7.1,85,7.1z
		 M37.8,5.6c-0.2-0.5,0-1.1,0.6-1.3l0,0c0.5-0.2,1.1,0.1,1.3,0.6l0,0c0.2,0.5,0,1.1-0.6,1.3l0,0c-0.1,0-0.2,0.1-0.4,0.1l0,0
		C38.3,6.3,37.9,6,37.8,5.6z M81.4,5.6L81.4,5.6c-0.5-0.2-0.8-0.8-0.6-1.3l0,0c0.2-0.5,0.8-0.8,1.3-0.6l0,0c0.5,0.2,0.8,0.8,0.6,1.3
		l0,0c-0.2,0.4-0.5,0.7-0.9,0.7l0,0C81.6,5.7,81.5,5.6,81.4,5.6z M41.5,4.2c-0.2-0.5,0.1-1.1,0.6-1.3l0,0l0,0l0,0
		c0.5-0.2,1.1,0.1,1.3,0.6l0,0c0.2,0.5-0.1,1.1-0.6,1.3l0,0c-0.1,0-0.2,0.1-0.3,0.1l0,0C42,4.9,41.6,4.6,41.5,4.2z M77.6,4.4
		c-0.5-0.1-0.8-0.7-0.7-1.2l0,0c0.2-0.5,0.7-0.8,1.2-0.7l0,0c0.5,0.2,0.8,0.7,0.7,1.2l0,0c-0.1,0.4-0.5,0.7-1,0.7l0,0
		C77.8,4.4,77.7,4.4,77.6,4.4z M45.3,3c-0.1-0.5,0.2-1.1,0.7-1.2l0,0c0.5-0.1,1.1,0.2,1.2,0.7l0,0c0.1,0.5-0.2,1.1-0.7,1.2l0,0
		c-0.1,0-0.2,0-0.2,0l0,0C45.9,3.8,45.4,3.5,45.3,3z M73.8,3.4c-0.5-0.1-0.9-0.6-0.8-1.2l0,0c0.1-0.5,0.7-0.9,1.2-0.8l0,0
		c0,0,0,0,0,0l0,0c0.5,0.1,0.9,0.7,0.8,1.2l0,0c-0.1,0.5-0.5,0.8-1,0.8l0,0C74,3.4,73.9,3.4,73.8,3.4z M49.2,2.1
		C49.1,1.6,49.5,1.1,50,1l0,0c0.5-0.1,1.1,0.3,1.2,0.8l0,0c0.1,0.5-0.3,1.1-0.8,1.2l0,0c-0.1,0-0.1,0-0.2,0l0,0
		C49.7,3,49.3,2.6,49.2,2.1z M69.9,2.7c-0.5-0.1-0.9-0.6-0.8-1.1l0,0c0.1-0.5,0.6-0.9,1.1-0.8l0,0c0.5,0.1,0.9,0.6,0.8,1.1l0,0
		c-0.1,0.5-0.5,0.9-1,0.9l0,0C70.1,2.7,70,2.7,69.9,2.7z M53.2,1.5c-0.1-0.5,0.3-1,0.9-1.1l0,0c0.6-0.1,1.1,0.3,1.1,0.9l0,0
		c0.1,0.6-0.3,1.1-0.9,1.1l0,0c0,0-0.1,0-0.1,0l0,0C53.7,2.4,53.2,2,53.2,1.5z M66,2.2c-0.6-0.1-1-0.5-0.9-1.1l0,0
		c0-0.6,0.5-1,1.1-0.9l0,0l0,0l0,0c0.5,0,1,0.5,0.9,1.1l0,0C67.1,1.8,66.6,2.2,66,2.2L66,2.2C66.1,2.2,66.1,2.2,66,2.2z M57.1,1.1
		c0-0.6,0.4-1,1-1l0,0c0.5,0,1,0.4,1,0.9l0,0c0,0.6-0.4,1-0.9,1.1l0,0c0,0,0,0-0.1,0l0,0C57.6,2.1,57.2,1.6,57.1,1.1z M62.1,2
		c-0.6,0-1-0.5-1-1l0,0c0-0.5,0.5-1,1-1l0,0l0,0l0,0c0.5,0,1,0.5,1,1l0,0C63.1,1.6,62.7,2,62.1,2L62.1,2C62.1,2,62.1,2,62.1,2z"/>
	<g>
		<path class="st0" d="M42.1,42.7c-0.1,0-0.1,0-0.2,0c-0.1,0-0.1,0-0.2,0c-0.1,0-0.1-0.1-0.2-0.1c-0.1,0-0.1-0.1-0.1-0.1
			c-0.1,0-0.1-0.1-0.1-0.1c0-0.1-0.1-0.1-0.1-0.2c0-0.1,0-0.1-0.1-0.2c0-0.1,0-0.1,0-0.2c0-0.1,0-0.3,0.1-0.4s0.1-0.2,0.2-0.3
			c0,0,0.1-0.1,0.1-0.1c0,0,0.1-0.1,0.2-0.1c0.1,0,0.1-0.1,0.2-0.1c0.1,0,0.3,0,0.4,0c0.1,0,0.1,0,0.2,0.1c0.1,0,0.1,0.1,0.2,0.1
			c0.1,0,0.1,0.1,0.1,0.1c0.1,0.1,0.2,0.2,0.2,0.3c0,0.1,0.1,0.2,0.1,0.4c0,0.1,0,0.1,0,0.2c0,0.1,0,0.1,0,0.2
			c0,0.1-0.1,0.1-0.1,0.2c0,0-0.1,0.1-0.1,0.1c0,0-0.1,0.1-0.1,0.1c-0.1,0-0.1,0.1-0.2,0.1c-0.1,0-0.1,0-0.2,0
			C42.2,42.7,42.2,42.7,42.1,42.7z"/>
		<path class="st0" d="M85.8,61.4c-0.5-0.2-0.7-0.8-0.5-1.3l0,0c0.2-0.5,0.8-0.8,1.3-0.5l0,0c0.5,0.2,0.7,0.8,0.5,1.3l0,0
			c-0.2,0.4-0.5,0.6-0.9,0.6l0,0C86.1,61.4,86,61.4,85.8,61.4z M82.2,59.8c-0.5-0.2-0.8-0.8-0.5-1.3l0,0c0.2-0.5,0.8-0.8,1.3-0.5
			l0,0c0.5,0.2,0.7,0.8,0.5,1.3l0,0c-0.2,0.4-0.5,0.6-0.9,0.6l0,0C82.4,59.9,82.3,59.8,82.2,59.8z M78.5,58.2
			c-0.5-0.2-0.8-0.8-0.5-1.3l0,0c0.2-0.5,0.8-0.7,1.3-0.5l0,0c0.5,0.2,0.7,0.8,0.5,1.3l0,0c-0.2,0.4-0.5,0.6-0.9,0.6l0,0
			C78.7,58.3,78.6,58.3,78.5,58.2z M74.8,56.7c-0.5-0.2-0.8-0.8-0.5-1.3l0,0c0.2-0.5,0.8-0.7,1.3-0.5l0,0c0.5,0.2,0.8,0.8,0.5,1.3
			l0,0c-0.2,0.4-0.5,0.6-0.9,0.6l0,0C75.1,56.7,74.9,56.7,74.8,56.7z M71.1,55.1c-0.5-0.2-0.7-0.8-0.5-1.3l0,0
			c0.2-0.5,0.8-0.7,1.3-0.5l0,0c0.5,0.2,0.8,0.8,0.5,1.3l0,0c-0.2,0.4-0.5,0.6-0.9,0.6l0,0C71.4,55.2,71.3,55.2,71.1,55.1z
			 M67.4,53.5c-0.5-0.2-0.7-0.8-0.5-1.3l0,0c0.2-0.5,0.8-0.8,1.3-0.5l0,0c0.5,0.2,0.8,0.8,0.5,1.3l0,0c-0.2,0.4-0.5,0.6-0.9,0.6l0,0
			C67.7,53.6,67.6,53.6,67.4,53.5z M63.8,52c-0.5-0.2-0.7-0.8-0.5-1.3l0,0c0.2-0.5,0.8-0.8,1.3-0.5l0,0c0.5,0.2,0.7,0.8,0.5,1.3l0,0
			c-0.2,0.4-0.5,0.6-0.9,0.6l0,0C64,52.1,63.9,52,63.8,52z M60.1,50.4c-0.5-0.2-0.8-0.8-0.5-1.3l0,0c0.2-0.5,0.8-0.8,1.3-0.5l0,0
			c0.5,0.2,0.7,0.8,0.5,1.3l0,0c-0.2,0.4-0.5,0.6-0.9,0.6l0,0C60.4,50.5,60.2,50.5,60.1,50.4z M56.4,48.9c-0.5-0.2-0.8-0.8-0.5-1.3
			l0,0c0.2-0.5,0.8-0.8,1.3-0.5l0,0c0.5,0.2,0.7,0.8,0.5,1.3l0,0c-0.2,0.4-0.5,0.6-0.9,0.6l0,0C56.7,48.9,56.5,48.9,56.4,48.9z
			 M52.7,47.3c-0.5-0.2-0.8-0.8-0.5-1.3l0,0c0.2-0.5,0.8-0.7,1.3-0.5l0,0c0.5,0.2,0.8,0.8,0.5,1.3l0,0c-0.2,0.4-0.5,0.6-0.9,0.6l0,0
			C53,47.4,52.9,47.4,52.7,47.3z M49.1,45.7c-0.5-0.2-0.8-0.8-0.5-1.3l0,0c0.2-0.5,0.8-0.7,1.3-0.5l0,0c0.5,0.2,0.8,0.8,0.5,1.3l0,0
			c-0.2,0.4-0.5,0.6-0.9,0.6l0,0C49.3,45.8,49.2,45.8,49.1,45.7z M45.4,44.2c-0.5-0.2-0.7-0.8-0.5-1.3l0,0c0.2-0.5,0.8-0.7,1.3-0.5
			l0,0c0.5,0.2,0.8,0.8,0.5,1.3l0,0c-0.2,0.4-0.5,0.6-0.9,0.6l0,0C45.6,44.3,45.5,44.2,45.4,44.2z"/>
		<path class="st0" d="M89.9,63c-0.1,0-0.3,0-0.4-0.1s-0.2-0.1-0.3-0.2c-0.2-0.2-0.3-0.4-0.3-0.7c0-0.3,0.1-0.5,0.3-0.7
			c0.4-0.4,1-0.4,1.4,0c0.2,0.2,0.3,0.5,0.3,0.7s-0.1,0.5-0.3,0.7c-0.1,0.1-0.2,0.2-0.3,0.2S90,63,89.9,63z"/>
		<path class="st0" d="M44.8,81.1c-0.2-0.5,0-1.1,0.5-1.3l0,0c0.5-0.2,1.1,0,1.3,0.5l0,0c0.2,0.5,0,1.1-0.5,1.3l0,0
			c-0.1,0.1-0.3,0.1-0.4,0.1l0,0C45.4,81.7,45,81.5,44.8,81.1z M48.5,79.6c-0.2-0.5,0-1.1,0.5-1.3l0,0c0.5-0.2,1.1,0,1.3,0.5l0,0
			c0.2,0.5,0,1.1-0.5,1.3l0,0c-0.1,0.1-0.3,0.1-0.4,0.1l0,0C49.1,80.2,48.7,79.9,48.5,79.6z M52.2,78c-0.2-0.5,0-1.1,0.5-1.3l0,0
			c0.5-0.2,1.1,0,1.3,0.5l0,0c0.2,0.5,0,1.1-0.5,1.3l0,0c-0.1,0.1-0.3,0.1-0.4,0.1l0,0C52.7,78.6,52.4,78.4,52.2,78z M55.9,76.4
			c-0.2-0.5,0-1.1,0.5-1.3l0,0c0.5-0.2,1.1,0,1.3,0.5l0,0c0.2,0.5,0,1.1-0.5,1.3l0,0C57.1,77,56.9,77,56.8,77l0,0
			C56.4,77,56,76.8,55.9,76.4z M59.6,74.9c-0.2-0.5,0-1.1,0.5-1.3l0,0c0.5-0.2,1.1,0,1.3,0.5l0,0c0.2,0.5,0,1.1-0.5,1.3l0,0
			c-0.1,0-0.3,0.1-0.4,0.1l0,0C60.1,75.5,59.7,75.2,59.6,74.9z M63.2,73.3c-0.2-0.5,0-1.1,0.5-1.3l0,0c0.5-0.2,1.1,0,1.3,0.5l0,0
			c0.2,0.5,0,1.1-0.5,1.3l0,0c-0.1,0-0.3,0.1-0.4,0.1l0,0C63.8,73.9,63.4,73.7,63.2,73.3z M66.9,71.7c-0.2-0.5,0-1.1,0.5-1.3l0,0
			c0.5-0.2,1.1,0,1.3,0.5l0,0c0.2,0.5,0,1.1-0.5,1.3l0,0c-0.1,0-0.3,0.1-0.4,0.1l0,0C67.4,72.4,67.1,72.1,66.9,71.7z M70.6,70.2
			c-0.2-0.5,0-1.1,0.5-1.3l0,0c0.5-0.2,1.1,0,1.3,0.5l0,0c0.2,0.5,0,1.1-0.5,1.3l0,0c-0.1,0-0.3,0.1-0.4,0.1l0,0
			C71.1,70.8,70.8,70.6,70.6,70.2z M74.3,68.6c-0.2-0.5,0-1.1,0.5-1.3l0,0c0.5-0.2,1.1,0,1.3,0.5l0,0c0.2,0.5,0,1.1-0.5,1.3l0,0
			c-0.1,0.1-0.3,0.1-0.4,0.1l0,0C74.8,69.2,74.4,69,74.3,68.6z M77.9,67.1c-0.2-0.5,0-1.1,0.5-1.3l0,0c0.5-0.2,1.1,0,1.3,0.5l0,0
			c0.2,0.5,0,1.1-0.5,1.3l0,0c-0.1,0.1-0.3,0.1-0.4,0.1l0,0C78.5,67.7,78.1,67.4,77.9,67.1z M81.6,65.5c-0.2-0.5,0-1.1,0.5-1.3l0,0
			c0.5-0.2,1.1,0,1.3,0.5l0,0c0.2,0.5,0,1.1-0.5,1.3l0,0c-0.1,0-0.3,0.1-0.4,0.1l0,0C82.2,66.1,81.8,65.9,81.6,65.5z M85.3,63.9
			c-0.2-0.5,0-1.1,0.5-1.3l0,0c0.5-0.2,1.1,0,1.3,0.5l0,0c0.2,0.5,0,1.1-0.5,1.3l0,0c-0.1,0-0.3,0.1-0.4,0.1l0,0
			C85.8,64.6,85.5,64.3,85.3,63.9z"/>
		<path class="st0" d="M42.1,83.3c-0.3,0-0.5-0.1-0.7-0.3c-0.1-0.1-0.2-0.2-0.2-0.3c0-0.1-0.1-0.2-0.1-0.4c0-0.3,0.1-0.5,0.3-0.7
			c0.1-0.1,0.2-0.2,0.3-0.2c0.4-0.2,0.8-0.1,1.1,0.2c0.2,0.2,0.3,0.4,0.3,0.7c0,0.1,0,0.3-0.1,0.4c-0.1,0.1-0.1,0.2-0.2,0.3
			c-0.1,0.1-0.2,0.2-0.3,0.2C42.4,83.3,42.2,83.3,42.1,83.3z"/>
		<path class="st0" d="M41.1,78.2c0-0.6,0.5-1,1-1l0,0c0.6,0,1,0.4,1,1l0,0c0,0.5-0.4,1-1,1l0,0C41.5,79.2,41.1,78.8,41.1,78.2z
			 M41.1,74.2c0-0.6,0.5-1,1-1l0,0c0.6,0,1,0.4,1,1l0,0c0,0.5-0.4,1-1,1l0,0C41.5,75.2,41.1,74.7,41.1,74.2z M41.1,70.1
			c0-0.6,0.5-1,1-1l0,0c0.6,0,1,0.4,1,1l0,0c0,0.5-0.4,1-1,1l0,0C41.5,71.1,41.1,70.7,41.1,70.1z M41.1,66.1c0-0.6,0.5-1,1-1l0,0
			c0.6,0,1,0.4,1,1l0,0c0,0.5-0.4,1-1,1l0,0C41.5,67.1,41.1,66.6,41.1,66.1z M41.1,62c0-0.5,0.5-1,1-1l0,0c0.6,0,1,0.5,1,1l0,0
			c0,0.5-0.4,1-1,1l0,0C41.5,63,41.1,62.5,41.1,62z M41.1,57.9c0-0.6,0.5-1,1-1l0,0c0.6,0,1,0.4,1,1l0,0c0,0.5-0.4,1-1,1l0,0
			C41.5,58.9,41.1,58.5,41.1,57.9z M41.1,53.9c0-0.6,0.5-1,1-1l0,0c0.6,0,1,0.4,1,1l0,0c0,0.5-0.4,1-1,1l0,0
			C41.5,54.9,41.1,54.4,41.1,53.9z M41.1,49.8c0-0.6,0.5-1,1-1l0,0c0.6,0,1,0.4,1,1l0,0c0,0.5-0.4,1-1,1l0,0
			C41.5,50.8,41.1,50.4,41.1,49.8z M41.1,45.8c0-0.5,0.5-1,1-1l0,0c0.6,0,1,0.5,1,1l0,0c0,0.5-0.4,1-1,1l0,0
			C41.5,46.8,41.1,46.3,41.1,45.8z"/>
	</g>
</g>
</svg>
