<?xml version="1.0" encoding="utf-8"?>
<!-- Generator: Adobe Illustrator 24.1.0, SVG Export Plug-In . SVG Version: 6.00 Build 0)  -->
<svg version="1.1" id="レイヤー_1" xmlns="http://www.w3.org/2000/svg" xmlns:xlink="http://www.w3.org/1999/xlink" x="0px"
	 y="0px" viewBox="0 0 19.7 10.8" style="enable-background:new 0 0 19.7 10.8;" xml:space="preserve">
<style type="text/css">
	.st0{fill:#FFFFFF;}
</style>
<g>
	<g>
		<path class="st0" d="M10.8,9.8c0,0.5-0.4,0.9-0.9,0.9c-0.5,0-0.9-0.4-0.9-0.9c0-0.5,0.4-0.9,0.9-0.9C10.3,8.9,10.8,9.3,10.8,9.8z"
			/>
	</g>
	<g>
		<path class="st0" d="M8.5,7.6c0,0.5-0.4,0.9-0.9,0.9c-0.5,0-0.9-0.4-0.9-0.9c0-0.5,0.4-0.9,0.9-0.9C8.1,6.7,8.5,7.1,8.5,7.6z"/>
	</g>
	<g>
		<path class="st0" d="M6.3,5.4c0,0.5-0.4,0.9-0.9,0.9c-0.5,0-0.9-0.4-0.9-0.9c0-0.5,0.4-0.9,0.9-0.9C5.9,4.5,6.3,4.9,6.3,5.4z"/>
	</g>
	<g>
		<path class="st0" d="M4.1,3.1c0,0.5-0.4,0.9-0.9,0.9c-0.5,0-0.9-0.4-0.9-0.9c0-0.5,0.4-0.9,0.9-0.9C3.7,2.2,4.1,2.6,4.1,3.1z"/>
	</g>
	<g>
		<path class="st0" d="M1.8,0.9c0,0.5-0.4,0.9-0.9,0.9C0.4,1.8,0,1.4,0,0.9C0,0.4,0.4,0,0.9,0C1.4,0,1.8,0.4,1.8,0.9z"/>
	</g>
	<g>
		<path class="st0" d="M13,7.6c0,0.5-0.4,0.9-0.9,0.9c-0.5,0-0.9-0.4-0.9-0.9c0-0.5,0.4-0.9,0.9-0.9C12.6,6.7,13,7.1,13,7.6z"/>
	</g>
	<g>
		<path class="st0" d="M15.2,5.4c0,0.5-0.4,0.9-0.9,0.9c-0.5,0-0.9-0.4-0.9-0.9c0-0.5,0.4-0.9,0.9-0.9C14.8,4.5,15.2,4.9,15.2,5.4z"
			/>
	</g>
	<g>
		<path class="st0" d="M17.4,3.1c0,0.5-0.4,0.9-0.9,0.9c-0.5,0-0.9-0.4-0.9-0.9c0-0.5,0.4-0.9,0.9-0.9C17,2.2,17.4,2.6,17.4,3.1z"/>
	</g>
	<g>
		<path class="st0" d="M19.7,0.9c0,0.5-0.4,0.9-0.9,0.9c-0.5,0-0.9-0.4-0.9-0.9c0-0.5,0.4-0.9,0.9-0.9C19.2,0,19.7,0.4,19.7,0.9z"/>
	</g>
</g>
</svg>
