<?xml version="1.0" encoding="utf-8"?>
<!-- Generator: Adobe Illustrator 24.1.0, SVG Export Plug-In . SVG Version: 6.00 Build 0)  -->
<svg version="1.1" id="レイヤー_1" xmlns="http://www.w3.org/2000/svg" xmlns:xlink="http://www.w3.org/1999/xlink" x="0px"
	 y="0px" viewBox="0 0 19.8 15.8" style="enable-background:new 0 0 19.8 15.8;" xml:space="preserve">
<style type="text/css">
	.st0{fill:#FFFFFF;}
</style>
<g>
	<g>
		<g>
			<g>
				<path class="st0" d="M9.9,14.1c0,0.4-0.2,0.7-0.5,0.8C9.3,14.9,9.1,15,9,15c-0.2,0-0.4-0.1-0.6-0.2l-4.9-4.1H0.9
					C0.4,10.7,0,10.3,0,9.8V6.2c0-0.5,0.4-0.9,0.9-0.9h2.6l4.9-4.1c0.3-0.2,0.6-0.3,1-0.1c0.3,0.1,0.5,0.5,0.5,0.8V14.1z"/>
			</g>
		</g>
	</g>
	<path class="st0" d="M16.4,9h-3.2c-0.6,0-1-0.5-1-1s0.5-1,1-1h3.2c0.6,0,1,0.5,1,1S17,9,16.4,9z"/>
</g>
</svg>
