<?xml version="1.0" encoding="utf-8"?>
<!-- Generator: Adobe Illustrator 24.1.0, SVG Export Plug-In . SVG Version: 6.00 Build 0)  -->
<svg version="1.1" id="レイヤー_1" xmlns="http://www.w3.org/2000/svg" xmlns:xlink="http://www.w3.org/1999/xlink" x="0px"
	 y="0px" viewBox="0 0 282.4 29.7" style="enable-background:new 0 0 282.4 29.7;" xml:space="preserve">
<style type="text/css">
	.st0{fill:#E6002D;}
	.st1{fill:#004098;}
	.st2{fill:#FFFFFF;}
</style>
<g>
	<rect x="19.6" y="19.8" class="st0" width="9.8" height="9.9"/>
	<polygon class="st1" points="9.8,19.8 9.8,9.9 0,9.9 0,0 29.5,0 29.5,9.9 19.6,9.9 19.6,19.8 	"/>
	<g>
		<g>
			<path class="st2" d="M54.9,14h-8.5v1.2h7.2V23h-5.7c2.8,2.6,6.2,3.8,7.3,4.1L54,29.2c-2-0.8-5.5-2.8-7.6-5.3v5.7h-2v-5.7
				c-2.3,2.8-5.6,4.7-7.5,5.4l-1.4-1.9c2.5-0.7,5.1-2.3,7.2-4.3h-5.5v-7.8h7.2V14h-8.6V12h8.6v-1.6h2V12h8.5V14z M39.2,18.2h5.2
				v-1.4h-5.2V18.2z M39.2,21.3h5.2v-1.4h-5.2V21.3z M46.4,18.2h5.2v-1.4h-5.2V18.2z M46.4,21.3h5.2v-1.4h-5.2V21.3z"/>
			<path class="st2" d="M62.4,24.2c-0.4,0.6-2.3,3.3-4.9,5L56,27.6c2.6-1.7,4.1-3.8,4.5-4.5L62.4,24.2z M75.5,14.2H56.2v-2.1h8.5
				v-1.7h2.2v1.7h8.6V14.2z M73.3,15.7v6.8h-6.5v5.2c0,0.9-0.3,2-1.8,2h-3.3l-0.4-2.2h2.8c0.5,0,0.7,0,0.7-0.6v-4.5h-6.5v-6.8H73.3z
				 M60.4,20.6h10.9v-3H60.4V20.6z M74.1,29.1c-2.4-1.4-3.5-2.7-5.1-5l1.8-1.1c1.5,1.9,2.8,3.1,4.7,4.2L74.1,29.1z"/>
			<path class="st2" d="M93.5,15v2.7c0,1-0.1,4.9-0.5,7.6c-0.5,3.2-1.9,3.5-3.7,3.5c-0.7,0-1.8,0-3.4-0.3l-0.1-2.3
				c0.7,0.1,2.3,0.4,3.3,0.4c1.3,0,1.5-0.7,1.6-1.4c0.2-1.2,0.5-5.6,0.5-6.6v-1.3h-5.9c-0.8,4.7-2.1,8.6-7,11.7l-1.6-1.6
				c5-2.6,5.8-6.5,6.4-10h-5.4V15h5.6c0.1-1.9,0.2-3.1,0.2-3.8l2.4,0.1c0,0.9-0.1,2-0.3,3.7H93.5z M90.7,14.3
				c-0.3-1.4-0.5-2.2-1-3.4l1.7-0.3c0.3,0.8,0.7,1.7,1.1,3.3L90.7,14.3z M93.6,14c-0.2-0.8-0.5-2-1.1-3.3l1.7-0.4
				c0.5,1.1,0.7,1.8,1.1,3.2L93.6,14z"/>
			<path class="st2" d="M96.2,26.7c4.4-1.6,9.5-6.1,11.8-12.3H97.3v-2.2h13.8c-0.3,1.2-1,4.5-3.9,8.5c2.4,1.9,4.7,3.9,6.9,6.1
				l-1.9,1.9c-2.3-2.7-5.5-5.5-6.4-6.3c-2.4,2.7-5,4.9-8.2,6.2L96.2,26.7z"/>
			<path class="st2" d="M115.4,27c3.2-3.5,4.2-9,4.5-14.7l2.3,0.2c-0.7,9.3-2.5,13.1-4.9,16.1L115.4,27z M129.2,12.3
				c0.4,4.7,1.6,10.2,5.1,14.7l-2.1,1.6c-3.4-4.3-4.8-10.5-5.2-16.1L129.2,12.3z M134.8,12.4c0,1.2-1,2.1-2.1,2.1
				c-1.2,0-2.1-0.9-2.1-2.1s1-2.1,2.1-2.1C133.8,10.2,134.8,11.2,134.8,12.4 M131.7,12.4c0,0.6,0.4,1,1,1c0.5,0,1-0.4,1-1
				c0-0.6-0.5-1-1-1C132.1,11.4,131.7,11.8,131.7,12.4"/>
			<path class="st2" d="M146.7,29h-2.4v-9.3c-2.3,1.6-4.9,2.7-7.6,3.6l-1.2-2c2.8-0.9,8.9-2.9,14.8-10.1l2.2,1.4
				c-0.8,0.8-3,3.1-5.8,5.4V29z"/>
			<path class="st2" d="M157.5,26.4c8-1.3,10.7-4.7,11.6-11.5h-13.3v-2.2h13.7c0-0.1-0.1-0.2-0.1-0.4c0-1.2,1-2.1,2.1-2.1
				c1.2,0,2.1,1,2.1,2.1c0,1.1-0.8,2.1-2.1,2.1c-0.2,2.5-1,5.7-2.3,7.7c-2.2,3.8-6.4,5.6-10.7,6.5L157.5,26.4z M170.5,12.3
				c0,0.6,0.5,1,1,1c0.6,0,1-0.4,1-1c0-0.6-0.4-1-1-1C171,11.3,170.5,11.7,170.5,12.3"/>
			<path class="st2" d="M184.9,29h-2.3v-6.3c-2.7,1.6-5.3,2.4-7,3l-1.1-2.1c2.9-0.7,9-2.5,13.2-7.6h-11.7v-2.2h6.6v-2.6h2.3v2.6h5.6
				v2.1c-0.9,1.1-2.5,3.2-5.6,5.4V29z M191.9,25.9c-2.2-1.7-3.7-2.6-6.1-3.7l1.5-1.7c1.1,0.5,4,1.7,6.1,3.3L191.9,25.9z"/>
			<path class="st2" d="M196.2,21.7c-0.3-1.7-0.8-3.2-1.6-4.8l1.9-0.6c1,2,1.4,3.2,1.8,4.9L196.2,21.7z M196.2,27.1
				c6.5-1.2,8.8-4.1,10-11.2l2.2,0.4c-1.1,5-2.3,10.6-11.3,12.7L196.2,27.1z M200.6,21c-0.3-2.3-0.9-3.7-1.4-4.8l1.9-0.5
				c0.9,1.8,1.3,3.6,1.5,4.8L200.6,21z"/>
			<path class="st2" d="M214.1,11.1v5.2c5,1.4,8.9,3.6,10.2,4.4l-1.1,2.4c-2.3-1.4-6.3-3.6-9.1-4.4v10.4h-2.5V11.1H214.1z"/>
			<path class="st2" d="M242.5,12.3l0,2c0,3.3-0.7,7.7-3.7,10.5c-3.2,3-7.3,3.6-8.8,3.9l-0.9-2.2c10.6-1.4,10.8-8.3,10.8-12.1h-10.7
				V20h-2.5v-7.7H242.5z"/>
			<rect x="245.4" y="18.6" class="st2" width="18.2" height="2.5"/>
			<path class="st2" d="M282.4,13.9c-0.6,3.4-2.3,13.5-14.7,15l-1-2.1c6.7-1,10.6-3.5,12.6-10.8H272c-1.8,2.3-3.4,3.8-4.9,4.7
				l-1.5-1.7c1.2-0.7,4.8-2.8,6.7-8.1l2.5,0.5c-0.2,0.7-0.5,1.2-1.2,2.4H282.4z"/>
			<polygon class="st2" points="37.9,0.7 37.9,7.1 37.4,7.1 37.4,0.7 35.7,0.7 35.7,0.2 39.7,0.2 39.7,0.7 			"/>
			<path class="st2" d="M46.5,3.7c0,2-1.6,3.5-3.6,3.5c-2,0-3.6-1.6-3.6-3.5c0-2,1.6-3.5,3.6-3.5C45,0.2,46.5,1.7,46.5,3.7
				 M46.1,3.7c0-1.8-1.3-3.1-3.1-3.1c-1.8,0-3.1,1.4-3.1,3.1c0,1.8,1.3,3.1,3.1,3.1C44.7,6.8,46.1,5.5,46.1,3.7"/>
			<polygon class="st2" points="48.1,3.5 51.3,0.2 51.9,0.2 48.6,3.5 52.1,7.1 51.5,7.1 48.2,3.8 48.1,4 48.1,7.1 47.6,7.1 
				47.6,0.2 48.1,0.2 			"/>
			<polygon class="st2" points="54.5,4.2 52.3,0.2 52.8,0.2 54.7,3.7 56.8,0.2 57.3,0.2 55,4.2 55,7.1 54.5,7.1 			"/>
			<path class="st2" d="M64.1,3.7c0,2-1.6,3.5-3.6,3.5c-2,0-3.6-1.6-3.6-3.5c0-2,1.6-3.5,3.6-3.5C62.6,0.2,64.1,1.7,64.1,3.7
				 M63.7,3.7c0-1.8-1.3-3.1-3.1-3.1c-1.8,0-3.1,1.4-3.1,3.1c0,1.8,1.3,3.1,3.1,3.1C62.3,6.8,63.7,5.5,63.7,3.7"/>
			<path class="st2" d="M71.1,3.8H74c0,0.6-0.1,1.5-0.7,2.3c-0.6,0.8-1.5,1.2-2.6,1.2c-2,0-3.6-1.5-3.6-3.5c0-2,1.6-3.5,3.6-3.5
				c1,0,1.6,0.3,2.2,0.7c0.3,0.2,0.5,0.5,0.8,0.9l-0.4,0.3c-0.2-0.3-0.5-0.6-0.7-0.8c-0.4-0.4-1.1-0.7-2-0.7c-1.8,0-3.1,1.4-3.1,3.2
				c0,1.7,1.3,3.1,3.1,3.1c1.2,0,2-0.6,2.4-1.2c0.3-0.4,0.4-1,0.5-1.4h-2.4V3.8z"/>
			<polygon class="st2" points="76.8,1.2 74.4,7.1 73.9,7.1 76.8,0 79.7,7.1 79.2,7.1 			"/>
			<path class="st2" d="M83.4,1.4C83,0.6,82.2,0.6,82,0.6c-0.8,0-1.3,0.6-1.3,1.3c0,0.7,0.5,1,1.2,1.3c0.7,0.3,1,0.5,1.4,0.7
				c0.3,0.2,0.7,0.6,0.7,1.3c0,1.2-1,2-2.1,2c-0.9,0-1.3-0.4-1.6-0.7c-0.3-0.3-0.4-0.6-0.4-0.8l0.4-0.2c0.1,0.3,0.3,0.5,0.4,0.7
				c0.3,0.4,0.8,0.6,1.3,0.6c0.9,0,1.7-0.7,1.7-1.6c0-0.4-0.1-0.8-0.7-1.1c-0.2-0.1-0.6-0.3-1.2-0.6c-0.7-0.3-1-0.5-1.3-0.9
				c-0.2-0.3-0.2-0.5-0.2-0.8c0-0.8,0.5-1.7,1.8-1.7c0.7,0,1.3,0.3,1.7,1L83.4,1.4z"/>
			<path class="st2" d="M91,3.8h2.9c0,0.6-0.1,1.5-0.7,2.3c-0.6,0.8-1.5,1.2-2.6,1.2c-2,0-3.6-1.5-3.6-3.5c0-2,1.6-3.5,3.6-3.5
				c1,0,1.6,0.3,2.2,0.7c0.3,0.2,0.5,0.5,0.8,0.9l-0.4,0.3c-0.2-0.3-0.5-0.6-0.7-0.8c-0.4-0.4-1.1-0.7-2-0.7c-1.8,0-3.1,1.4-3.1,3.2
				c0,1.7,1.3,3.1,3.1,3.1c1.2,0,2-0.6,2.4-1.2c0.3-0.4,0.4-1,0.5-1.4H91V3.8z"/>
			<path class="st2" d="M97.8,7.1l-2.2-3.2h-0.2v3.2h-0.5V0.2h1c0.5,0,1,0,1.5,0.4c0.5,0.4,0.7,0.9,0.7,1.5c0,0.7-0.3,1.4-1.2,1.7
				c-0.4,0.1-0.7,0.1-0.8,0.1l2.2,3.2H97.8z M95.4,3.5H96c1,0,1.6-0.5,1.6-1.4c0-0.7-0.3-1.1-0.6-1.2c-0.3-0.2-0.8-0.2-1.1-0.2h-0.6
				V3.5z"/>
			<path class="st2" d="M105.8,3.7c0,2-1.6,3.5-3.6,3.5c-2,0-3.6-1.6-3.6-3.5c0-2,1.6-3.5,3.6-3.5C104.3,0.2,105.8,1.7,105.8,3.7
				 M105.4,3.7c0-1.8-1.3-3.1-3.1-3.1c-1.8,0-3.1,1.4-3.1,3.1c0,1.8,1.3,3.1,3.1,3.1C104.1,6.8,105.4,5.5,105.4,3.7"/>
			<path class="st2" d="M107.3,0.2v4.3c0,0.6,0,1.1,0.3,1.5c0.4,0.6,1.2,0.8,1.6,0.8c0.4,0,1.2-0.1,1.6-0.8c0.3-0.4,0.3-0.8,0.3-1.5
				V0.2h0.5v4.3c0,0.8,0,1.2-0.4,1.8c-0.5,0.8-1.3,0.9-1.9,0.9c-0.6,0-1.4-0.2-1.9-0.9c-0.4-0.5-0.4-1-0.4-1.8V0.2H107.3z"/>
			<path class="st2" d="M113.4,3.9v3.3H113V0.2h1.3c1.1,0,2,0.6,2,1.8c0,1.1-0.8,1.8-2,1.8H113.4z M113.4,3.4h0.9
				c0.9,0,1.5-0.5,1.5-1.4c0-0.9-0.6-1.4-1.6-1.4h-0.8V3.4z"/>
		</g>
	</g>
</g>
</svg>
