<?xml version="1.0" encoding="utf-8"?>
<!-- Generator: Adobe Illustrator 24.1.0, SVG Export Plug-In . SVG Version: 6.00 Build 0)  -->
<svg version="1.1" id="レイヤー_1" xmlns="http://www.w3.org/2000/svg" xmlns:xlink="http://www.w3.org/1999/xlink" x="0px"
	 y="0px" viewBox="0 0 385 40.5" style="enable-background:new 0 0 385 40.5;" xml:space="preserve">
<style type="text/css">
	.st0{fill:#E6002D;}
	.st1{fill:#004098;}
	.st2{fill:#0E0000;}
</style>
<g>
	<rect x="26.8" y="27" class="st0" width="13.4" height="13.5"/>
	<polygon class="st1" points="13.4,27 13.4,13.5 0,13.5 0,0 40.2,0 40.2,13.5 26.8,13.5 26.8,27 	"/>
	<g>
		<path class="st2" d="M74.9,19H63.3v1.6h9.9v10.6h-7.8c3.8,3.6,8.4,5.2,9.9,5.6l-1.6,2.9c-2.7-1-7.4-3.9-10.4-7.3v7.8h-2.8v-7.8
			c-3.2,3.9-7.6,6.4-10.2,7.3l-1.8-2.6c3.4-1,7-3.1,9.8-5.9h-7.5V20.7h9.8V19H48.8v-2.6h11.7v-2.2h2.8v2.2h11.6V19z M53.4,24.9h7V23
			h-7V24.9z M53.4,29h7v-1.9h-7V29z M63.3,24.9h7.2V23h-7.2V24.9z M63.3,29h7.2v-1.9h-7.2V29z"/>
		<path class="st2" d="M85.1,33c-0.5,0.8-3.2,4.5-6.6,6.8l-2-2.2c3.6-2.3,5.5-5.2,6.2-6.1L85.1,33z M102.9,19.3H76.6v-2.8h11.5v-2.4
			h3v2.4h11.8V19.3z M100,21.4v9.3h-8.8v7.1c0,1.3-0.4,2.7-2.5,2.7h-4.6l-0.5-2.9h3.9c0.6,0,0.9,0,0.9-0.8v-6.1h-8.9v-9.3H100z
			 M82.3,28.1h14.8V24H82.3V28.1z M101,39.7c-3.3-2-4.8-3.7-7-6.8l2.5-1.5c2,2.7,3.9,4.3,6.5,5.8L101,39.7z"/>
		<path class="st2" d="M127.5,20.5v3.7c0,1.4-0.1,6.6-0.7,10.3c-0.6,4.4-2.7,4.7-5.1,4.7c-0.9,0-2.5-0.1-4.7-0.4l-0.2-3.1
			c1,0.2,3.1,0.5,4.5,0.5c1.8,0,2-0.9,2.2-2c0.3-1.7,0.7-7.6,0.7-9v-1.8h-8c-1,6.4-2.8,11.7-9.6,15.9l-2.2-2.2
			c6.8-3.6,7.9-8.9,8.7-13.7h-7.3v-2.9h7.7c0.2-2.6,0.2-4.2,0.2-5.1l3.3,0.1c-0.1,1.2-0.1,2.8-0.4,5H127.5z M123.6,19.4
			c-0.4-2-0.7-2.9-1.3-4.6l2.3-0.5c0.4,1,1,2.3,1.5,4.5L123.6,19.4z M127.6,19c-0.3-1-0.7-2.8-1.5-4.5l2.3-0.5
			c0.6,1.5,1,2.5,1.5,4.4L127.6,19z"/>
		<path class="st2" d="M131.1,36.4c6-2.2,13-8.3,16.1-16.8h-14.5v-3h18.8c-0.4,1.7-1.4,6.1-5.4,11.6c3.3,2.6,6.5,5.4,9.4,8.3
			l-2.6,2.7c-3.2-3.7-7.4-7.5-8.7-8.5c-3.2,3.7-6.8,6.6-11.2,8.4L131.1,36.4z"/>
		<path class="st2" d="M157.3,36.8c4.4-4.7,5.7-12.3,6.1-20l3.2,0.3c-0.9,12.7-3.4,17.9-6.7,22L157.3,36.8z M176.1,16.8
			c0.6,6.5,2.2,14,6.9,20.1l-2.9,2.2c-4.6-5.9-6.5-14.2-7.1-21.9L176.1,16.8z M183.8,16.8c0,1.6-1.3,2.9-2.9,2.9
			c-1.6,0-2.9-1.3-2.9-2.9c0-1.6,1.3-2.9,2.9-2.9C182.5,13.9,183.8,15.2,183.8,16.8 M179.5,16.8c0,0.8,0.6,1.3,1.3,1.3
			c0.7,0,1.3-0.6,1.3-1.3c0-0.8-0.6-1.3-1.3-1.3C180.2,15.5,179.5,16.1,179.5,16.8"/>
		<path class="st2" d="M200,39.5h-3.3V26.8c-3.2,2.1-6.7,3.7-10.3,4.9l-1.6-2.7c3.8-1.2,12.1-4,20.2-13.8l3,1.8
			c-1.1,1.1-4.1,4.2-7.9,7.3V39.5z"/>
		<path class="st2" d="M214.7,36c10.8-1.8,14.6-6.4,15.8-15.7h-18.1v-3H231c0-0.1-0.1-0.3-0.1-0.6c0-1.6,1.3-2.9,2.9-2.9
			c1.6,0,2.9,1.3,2.9,2.9c0,1.5-1.1,2.9-2.9,2.9c-0.3,3.4-1.4,7.8-3.1,10.5c-3,5.1-8.7,7.7-14.6,8.9L214.7,36z M232.5,16.7
			c0,0.8,0.6,1.3,1.3,1.3c0.8,0,1.3-0.6,1.3-1.3c0-0.8-0.6-1.3-1.3-1.3C233.1,15.4,232.5,15.9,232.5,16.7"/>
		<path class="st2" d="M252,39.6h-3.2V31c-3.7,2.2-7.3,3.3-9.6,4l-1.5-2.9c4-1,12.2-3.5,18.1-10.4h-16v-2.9h9v-3.6h3.2v3.6h7.6v2.9
			c-1.2,1.6-3.4,4.3-7.6,7.3V39.6z M261.6,35.3c-3-2.3-5-3.5-8.4-5l2-2.3c1.6,0.6,5.4,2.4,8.3,4.4L261.6,35.3z"/>
		<path class="st2" d="M267.5,29.6c-0.4-2.3-1.1-4.4-2.2-6.6l2.6-0.8c1.3,2.7,1.9,4.3,2.4,6.6L267.5,29.6z M267.5,36.9
			c8.9-1.6,11.9-5.6,13.7-15.2l3,0.5c-1.5,6.8-3.2,14.5-15.5,17.3L267.5,36.9z M273.5,28.6c-0.4-3.1-1.2-5.1-1.8-6.6l2.7-0.7
			c1.3,2.4,1.8,4.9,2,6.5L273.5,28.6z"/>
		<path class="st2" d="M291.9,15.1v7.2c6.8,1.9,12.1,5,14,6.1l-1.5,3.2c-3.1-1.9-8.6-5-12.5-6v14.2h-3.4V15.1H291.9z"/>
		<path class="st2" d="M330.6,16.7l0,2.8c-0.1,4.5-0.9,10.6-5,14.3c-4.4,4-9.9,5-12,5.3l-1.2-2.9c14.5-2,14.7-11.3,14.8-16.5h-14.6
			v7.5h-3.4V16.7H330.6z"/>
		<rect x="334.6" y="25.4" class="st2" width="24.8" height="3.4"/>
		<path class="st2" d="M385,18.9c-0.8,4.7-3.1,18.4-20,20.5l-1.3-2.8c9.1-1.3,14.5-4.8,17.1-14.7h-10c-2.5,3.2-4.6,5.2-6.7,6.4
			l-2.1-2.4c1.7-1,6.5-3.8,9.1-11l3.4,0.7c-0.3,0.9-0.6,1.7-1.6,3.3H385z"/>
		<polygon class="st2" points="51.7,0.9 51.7,9.7 51,9.7 51,0.9 48.6,0.9 48.6,0.3 54.1,0.3 54.1,0.9 		"/>
		<path class="st2" d="M63.4,5c0,2.7-2.1,4.8-4.9,4.8c-2.8,0-4.9-2.1-4.9-4.8c0-2.7,2.1-4.8,4.9-4.8C61.3,0.2,63.4,2.3,63.4,5
			 M62.8,5c0-2.4-1.8-4.3-4.2-4.3c-2.4,0-4.2,1.9-4.2,4.3c0,2.4,1.8,4.3,4.2,4.3C61,9.3,62.8,7.4,62.8,5"/>
		<polygon class="st2" points="65.5,4.7 69.9,0.3 70.8,0.3 66.2,4.8 71,9.7 70.2,9.7 65.8,5.2 65.5,5.5 65.5,9.7 64.9,9.7 64.9,0.3 
			65.5,0.3 		"/>
		<polygon class="st2" points="74.3,5.7 71.2,0.3 71.9,0.3 74.6,5.1 77.4,0.3 78.1,0.3 74.9,5.7 74.9,9.7 74.3,9.7 		"/>
		<path class="st2" d="M87.4,5c0,2.7-2.1,4.8-4.9,4.8c-2.8,0-4.9-2.1-4.9-4.8c0-2.7,2.1-4.8,4.9-4.8C85.3,0.2,87.4,2.3,87.4,5
			 M86.8,5c0-2.4-1.8-4.3-4.2-4.3c-2.4,0-4.2,1.9-4.2,4.3c0,2.4,1.8,4.3,4.2,4.3C85,9.3,86.8,7.4,86.8,5"/>
		<path class="st2" d="M96.9,5.2h3.9c0,0.9-0.2,2.1-1,3.1c-0.8,1.1-2.1,1.6-3.5,1.6c-2.8,0-4.8-2-4.8-4.8c0-2.8,2.2-4.8,4.9-4.8
			c1.3,0,2.2,0.4,2.9,1c0.4,0.3,0.7,0.6,1.1,1.2L100,2.8c-0.3-0.4-0.6-0.8-0.9-1c-0.6-0.5-1.5-1-2.7-1c-2.4,0-4.2,1.9-4.2,4.3
			c0,2.3,1.8,4.2,4.2,4.2c1.6,0,2.8-0.8,3.3-1.6c0.4-0.6,0.6-1.3,0.6-1.9h-3.3V5.2z"/>
		<polygon class="st2" points="104.7,1.6 101.5,9.7 100.8,9.7 104.8,0.1 108.6,9.7 108,9.7 		"/>
		<path class="st2" d="M113.7,1.9c-0.6-1.1-1.6-1.2-1.8-1.2c-1.1,0-1.7,0.8-1.7,1.7c0,1,0.7,1.3,1.6,1.8c0.9,0.4,1.4,0.6,1.9,1
			c0.4,0.3,1,0.8,1,1.8c0,1.6-1.3,2.7-2.9,2.7c-1.2,0-1.8-0.6-2.2-1c-0.4-0.4-0.5-0.8-0.6-1l0.5-0.3c0.1,0.4,0.4,0.7,0.5,0.9
			c0.4,0.5,1.1,0.8,1.8,0.8c1.3,0,2.3-0.9,2.3-2.2c0-0.5-0.2-1-0.9-1.5c-0.3-0.2-0.8-0.4-1.6-0.8c-0.9-0.4-1.4-0.7-1.7-1.2
			c-0.2-0.4-0.3-0.7-0.3-1.1c0-1.1,0.7-2.3,2.4-2.3c0.9,0,1.8,0.4,2.3,1.3L113.7,1.9z"/>
		<path class="st2" d="M124.1,5.2h3.9c0,0.9-0.2,2.1-1,3.1c-0.8,1.1-2.1,1.6-3.5,1.6c-2.8,0-4.8-2-4.8-4.8c0-2.8,2.2-4.8,4.9-4.8
			c1.3,0,2.2,0.4,2.9,1c0.4,0.3,0.7,0.6,1.1,1.2l-0.5,0.4c-0.3-0.4-0.6-0.8-0.9-1c-0.6-0.5-1.5-1-2.7-1c-2.4,0-4.2,1.9-4.2,4.3
			c0,2.3,1.8,4.2,4.2,4.2c1.6,0,2.8-0.8,3.3-1.6c0.4-0.6,0.6-1.3,0.6-1.9h-3.3V5.2z"/>
		<path class="st2" d="M133.4,9.7l-3-4.4H130v4.4h-0.6V0.3h1.3c0.7,0,1.4,0.1,2,0.5c0.7,0.5,1,1.3,1,2c0,0.9-0.4,1.9-1.6,2.3
			c-0.5,0.2-0.9,0.2-1.2,0.2l3.1,4.4H133.4z M130,4.7h0.9c1.3,0,2.1-0.7,2.1-1.9c0-0.9-0.5-1.4-0.8-1.6c-0.4-0.2-1.1-0.3-1.4-0.3
			H130V4.7z"/>
		<path class="st2" d="M144.3,5c0,2.7-2.1,4.8-4.9,4.8c-2.8,0-4.9-2.1-4.9-4.8c0-2.7,2.1-4.8,4.9-4.8C142.2,0.2,144.3,2.3,144.3,5
			 M143.7,5c0-2.4-1.8-4.3-4.2-4.3c-2.4,0-4.2,1.9-4.2,4.3c0,2.4,1.8,4.3,4.2,4.3C141.9,9.3,143.7,7.4,143.7,5"/>
		<path class="st2" d="M146.3,0.3v5.9c0,0.9,0,1.5,0.4,2c0.5,0.9,1.6,1.1,2.2,1.1c0.6,0,1.6-0.2,2.2-1.1c0.4-0.6,0.4-1.1,0.4-2V0.3
			h0.6v5.9c0,1-0.1,1.7-0.5,2.4c-0.7,1-1.8,1.3-2.7,1.3c-0.8,0-2-0.2-2.7-1.3c-0.5-0.7-0.5-1.4-0.5-2.4V0.3H146.3z"/>
		<path class="st2" d="M154.7,5.3v4.5H154V0.3h1.8c1.5,0,2.7,0.8,2.7,2.4c0,1.6-1.1,2.5-2.7,2.5H154.7z M154.7,4.7h1.2
			c1.2,0,2.1-0.7,2.1-1.9c0-1.2-0.8-1.9-2.1-1.9h-1.1V4.7z"/>
	</g>
</g>
</svg>
